HIERARCHY
ROOT hip
{
  OFFSET 55.8943 87.9232 207.222
  CHANNELS 6 Xposition Yposition Zposition Zrotation Xrotation Yrotation
  JOINT abdomen
  {
    OFFSET 0 20.6881 -0.73152
    CHANNELS 3 Zrotation Xrotation Yrotation
    JOINT chest
    {
      OFFSET 0 11.7043 -0.48768
      CHANNELS 3 Zrotation Xrotation Yrotation
      JOINT neck
      {
        OFFSET 0 22.1894 -2.19456
        CHANNELS 3 Zrotation Xrotation Yrotation
        JOINT head
        {
          OFFSET -0.24384 7.07133 1.2192
          CHANNELS 3 Zrotation Xrotation Yrotation
          JOINT leftEye
          {
            OFFSET 4.14528 8.04674 8.04672
            CHANNELS 3 Zrotation Xrotation Yrotation
            End Site
            {
              OFFSET 1 0 0
            }
          }
          JOINT rightEye
          {
            OFFSET -3.6576 8.04674 8.04672
            CHANNELS 3 Zrotation Xrotation Yrotation
            End Site
            {
              OFFSET 1 0 0
            }
          }
        }
      }
      JOINT rCollar
      {
        OFFSET -2.68224 19.2634 -4.8768
        CHANNELS 3 Zrotation Xrotation Yrotation
        JOINT rShldr
        {
          OFFSET -8.77824 -1.95073 1.46304
          CHANNELS 3 Zrotation Xrotation Yrotation
          JOINT rForeArm
          {
            OFFSET -28.1742 -1.7115 0.48768
            CHANNELS 3 Zrotation Xrotation Yrotation
            JOINT rHand
            {
              OFFSET -22.5879 0.773209 7.07136
              CHANNELS 3 Zrotation Xrotation Yrotation
              JOINT rThumb1
              {
                OFFSET -1.2192 -0.487915 3.41376
                CHANNELS 3 Zrotation Xrotation Yrotation
                JOINT rThumb2
                {
                  OFFSET -3.37035 -0.52449 3.41376
                  CHANNELS 3 Zrotation Xrotation Yrotation
                  End Site
                  {
                    OFFSET -1.78271 -1.18214 1.43049
                  }
                }
              }
              JOINT rIndex1
              {
                OFFSET -7.75947 0.938293 5.60832
                CHANNELS 3 Zrotation Xrotation Yrotation
                JOINT rIndex2
                {
                  OFFSET -2.54057 -0.884171 1.56538
                  CHANNELS 3 Zrotation Xrotation Yrotation
                  End Site
                  {
                    OFFSET -1.62519 -0.234802 1.16502
                  }
                }
              }
              JOINT rMid1
              {
                OFFSET -8.24714 1.18213 3.41376
                CHANNELS 3 Zrotation Xrotation Yrotation
                JOINT rMid2
                {
                  OFFSET -3.10165 -0.590103 1.0647
                  CHANNELS 3 Zrotation Xrotation Yrotation
                  End Site
                  {
                    OFFSET -2.48547 -0.328903 0.83742
                  }
                }
              }
              JOINT rRing1
              {
                OFFSET -8.82822 0.546677 1.51678
                CHANNELS 3 Zrotation Xrotation Yrotation
                JOINT rRing2
                {
                  OFFSET -2.60934 -0.819778 -0.0198488
                  CHANNELS 3 Zrotation Xrotation Yrotation
                  End Site
                  {
                    OFFSET -2.33842 -0.294052 0.168128
                  }
                }
              }
              JOINT rPinky1
              {
                OFFSET -8.27202 -0.0477905 -0.4584
                CHANNELS 3 Zrotation Xrotation Yrotation
                JOINT rPinky2
                {
                  OFFSET -1.82734 -0.647385 -0.700984
                  CHANNELS 3 Zrotation Xrotation Yrotation
                  End Site
                  {
                    OFFSET -1.69225 -0.51767 -0.607171
                  }
                }
              }
            }
          }
        }
      }
      JOINT lCollar
      {
        OFFSET 2.68224 19.2634 -4.8768
        CHANNELS 3 Zrotation Xrotation Yrotation
        JOINT lShldr
        {
          OFFSET 8.77824 -1.95073 1.46304
          CHANNELS 3 Zrotation Xrotation Yrotation
          JOINT lForeArm
          {
            OFFSET 28.1742 -1.7115 0.48768
            CHANNELS 3 Zrotation Xrotation Yrotation
            JOINT lHand
            {
              OFFSET 22.5879 0.773209 7.07136
              CHANNELS 3 Zrotation Xrotation Yrotation
              JOINT lThumb1
              {
                OFFSET 1.2192 -0.487915 3.41376
                CHANNELS 3 Zrotation Xrotation Yrotation
                JOINT lThumb2
                {
                  OFFSET 3.37035 -0.52449 3.41376
                  CHANNELS 3 Zrotation Xrotation Yrotation
                  End Site
                  {
                    OFFSET 1.78271 -1.18214 1.43049
                  }
                }
              }
              JOINT lIndex1
              {
                OFFSET 7.75947 0.938293 5.60832
                CHANNELS 3 Zrotation Xrotation Yrotation
                JOINT lIndex2
                {
                  OFFSET 2.54057 -0.884171 1.56538
                  CHANNELS 3 Zrotation Xrotation Yrotation
                  End Site
                  {
                    OFFSET 1.62519 -0.234802 1.16502
                  }
                }
              }
              JOINT lMid1
              {
                OFFSET 8.24714 1.18213 3.41376
                CHANNELS 3 Zrotation Xrotation Yrotation
                JOINT lMid2
                {
                  OFFSET 3.10165 -0.590103 1.0647
                  CHANNELS 3 Zrotation Xrotation Yrotation
                  End Site
                  {
                    OFFSET 2.48547 -0.328903 0.83742
                  }
                }
              }
              JOINT lRing1
              {
                OFFSET 8.82822 0.546677 1.51678
                CHANNELS 3 Zrotation Xrotation Yrotation
                JOINT lRing2
                {
                  OFFSET 2.60934 -0.819778 -0.0198488
                  CHANNELS 3 Zrotation Xrotation Yrotation
                  End Site
                  {
                    OFFSET 2.33842 -0.294052 0.168128
                  }
                }
              }
              JOINT lPinky1
              {
                OFFSET 8.27202 -0.0477905 -0.4584
                CHANNELS 3 Zrotation Xrotation Yrotation
                JOINT lPinky2
                {
                  OFFSET 1.82734 -0.647385 -0.700984
                  CHANNELS 3 Zrotation Xrotation Yrotation
                  End Site
                  {
                    OFFSET 1.69225 -0.51767 -0.607171
                  }
                }
              }
            }
          }
        }
      }
    }
  }
  JOINT rButtock
  {
    OFFSET -8.77824 4.35084 1.2192
    CHANNELS 3 Zrotation Xrotation Yrotation
    JOINT rThigh
    {
      OFFSET 0 -1.70687 -2.19456
      CHANNELS 3 Zrotation Xrotation Yrotation
      JOINT rShin
      {
        OFFSET 0 -36.8199 0.73152
        CHANNELS 3 Zrotation Xrotation Yrotation
        JOINT rFoot
        {
          OFFSET 0.73152 -45.1104 -5.12064
          CHANNELS 3 Zrotation Xrotation Yrotation
          End Site
          {
            OFFSET -1.1221 -3.69964 12.103
          }
        }
      }
    }
  }
  JOINT lButtock
  {
    OFFSET 8.77824 4.35084 1.2192
    CHANNELS 3 Zrotation Xrotation Yrotation
    JOINT lThigh
    {
      OFFSET 0 -1.70687 -2.19456
      CHANNELS 3 Zrotation Xrotation Yrotation
      JOINT lShin
      {
        OFFSET 0 -36.8199 0.73152
        CHANNELS 3 Zrotation Xrotation Yrotation
        JOINT lFoot
        {
          OFFSET -0.73152 -45.1104 -5.12064
          CHANNELS 3 Zrotation Xrotation Yrotation
          End Site
          {
            OFFSET 1.1221 -3.69964 12.103
          }
        }
      }
    }
  }
}
MOTION
Frames:	9
Frame Time:	0.00833333
44.3566 82.2329 -222.199 -0.199214 -0.000989172 0.00338126 0.26221 -0.00240319 0.00752833 0.0724431 -0.00388227 0.0125515 -6.45685e-015 -7.95139e-016 -4.03781e-017 -1.93815e-014 3.18055e-015 -1.27346e-016 -0 0 0 -0 0 0 -3.1819e-015 1.41712e-017 1.49089e-016 -6.64421e-014 -2.48481e-017 1.98785e-016 -1.16349e-012 3.57216e-013 -6.36111e-015 -1.33377e-011 -3.00165e-013 -1.24042e-013 -3.14575e-011 1.30523e-013 -2.44903e-013 -5.43342e-011 2.25819e-013 -4.25399e-013 -3.14529e-011 1.308e-013 -2.54444e-013 7.73091 5.47488 0.417314 -3.14583e-011 1.30204e-013 -2.44903e-013 2.90554 0.965183 0.102902 -3.14525e-011 1.30602e-013 -2.42517e-013 10.2786 0.731801 0.0259123 -3.14611e-011 1.31993e-013 -2.3218e-013 2.22167 -0.733487 -0.20892 -3.27881e-015 1.3977e-017 -1.98785e-016 -6.99646e-014 -1.86361e-017 -1.59028e-015 -1.16662e-012 -3.3853e-013 -3.18055e-015 -1.33334e-011 4.0162e-013 -9.85972e-014 -3.14543e-011 1.38502e-013 -2.35361e-013 -5.43127e-011 2.41722e-013 -4.06316e-013 -3.14585e-011 1.38354e-013 -2.29e-013 -7.73091 5.47488 -0.417314 -3.14541e-011 1.38553e-013 -2.41722e-013 -2.90554 0.965183 -0.102902 -3.14647e-011 1.39149e-013 -2.39337e-013 -10.2786 0.731801 -0.0259123 -3.14529e-011 1.39149e-013 -2.51264e-013 -2.22167 -0.733487 0.20892 -2.03217e-016 0 -3.88251e-019 0.660461 -3.79298 -0.0559813 -0.00363609 1.31888 -0.0297749 -0.463041 2.47431 0.102447 2.03217e-016 0 3.88251e-019 -0.260011 -2.74929 0.0308218 0.00660601 -0.571626 0.0578544 0.458227 3.32107 -0.118786 
43.2958 78.752 -223.661 -1.53762 2.49715 -0.734363 1.54348 -0.99375 0.637936 1.50091 0.129859 0.185224 -3.17426 -1.27459 -1.1188 4.64035 -0.967366 -0.928244 -0 0 0 -0 0 0 -1.61164e-014 -1.88558e-014 1.32646e-014 19.9196 13.2152 2.44136 -4.99885 -2.44917 7.60884 0.0361521 -4.24411 -0.590705 3.38475e-011 -9.16758e-011 -2.54338e-011 5.9066e-011 -1.59381e-010 -4.36894e-011 3.38555e-011 -9.16784e-011 -2.54464e-011 7.73091 5.47488 0.417314 3.38479e-011 -9.16798e-011 -2.54338e-011 2.90554 0.965183 0.102902 3.38532e-011 -9.16795e-011 -2.54319e-011 10.2786 0.731801 0.0259123 3.38414e-011 -9.16748e-011 -2.54258e-011 2.22167 -0.733487 -0.20892 -1.616e-014 -1.88554e-014 1.30064e-014 -21.9549 13.5558 1.39485 3.52632 -1.48542 -5.62808 -0.00305311 -1.28553 0.180525 1.4816e-010 8.38315e-011 1.12461e-010 2.55757e-010 1.449e-010 1.94676e-010 1.48156e-010 8.38312e-011 1.12468e-010 -7.73091 5.47488 -0.417314 1.48157e-010 8.38317e-011 1.12453e-010 -2.90554 0.965183 -0.102902 1.48152e-010 8.38319e-011 1.12458e-010 -10.2786 0.731801 -0.0259123 1.48163e-010 8.38327e-011 1.12446e-010 -2.22167 -0.733487 0.20892 -2.03217e-016 0 -3.88251e-019 3.87431 -8.4785 1.25936 0.0654927 10.0328 0.164499 -0.454055 -3.21507 0.166111 2.03217e-016 0 3.88251e-019 1.54182 -14.9446 2.63871 -0.0672066 17.2598 -0.207627 0.92008 0.680686 3.85895 
43.2144 79.3034 -222.448 -2.88568 5.13609 -1.49125 2.92812 -2.04214 1.28021 3.00859 0.272637 0.361235 -6.57537 -2.62889 -2.30748 9.50413 -1.96202 -1.92438 -0 0 0 -0 0 0 -3.05186e-014 -4.32795e-014 2.7628e-014 39.6901 27.0157 5.39516 -9.54167 -4.8601 15.6398 -0.0218282 -8.67631 -1.2187 1.02043e-010 -1.92812e-010 -5.1452e-011 1.77594e-010 -3.35238e-010 -8.84334e-011 1.02055e-010 -1.92818e-010 -5.14681e-011 7.73091 5.47488 0.417314 1.02045e-010 -1.9282e-010 -5.1452e-011 2.90554 0.965183 0.102902 1.0205e-010 -1.9282e-010 -5.14508e-011 10.2786 0.731801 0.0259123 1.02034e-010 -1.92812e-010 -5.14494e-011 2.22167 -0.733487 -0.20892 -3.05041e-014 -4.32787e-014 2.74696e-014 -45.9259 27.9311 3.06085 6.9391 -3.00831 -11.5908 0.0028067 -2.68917 0.37796 3.68113e-010 1.73815e-010 2.13869e-010 6.35472e-010 3.00416e-010 3.70265e-010 3.68109e-010 1.73814e-010 2.13877e-010 -7.73091 5.47488 -0.417314 3.68108e-010 1.73815e-010 2.13859e-010 -2.90554 0.965183 -0.102902 3.68107e-010 1.73815e-010 2.13868e-010 -10.2786 0.731801 -0.0259123 3.68118e-010 1.73817e-010 2.13855e-010 -2.22167 -0.733487 0.20892 -2.03217e-016 0 -3.88251e-019 7.52 -13.4955 2.7028 0.0704271 19.2865 0.385029 -0.433968 -9.23243 0.221752 2.03217e-016 0 3.88251e-019 4.79597 -27.7254 5.90151 0.0722692 36.2604 -0.582815 1.80923 -2.05333 8.08926 
43.1576 79.6016 -221.191 -4.02007 7.48845 -2.22676 4.17151 -2.97499 1.90103 4.35543 0.397326 0.53058 -9.6723 -3.81792 -3.36303 13.827 -2.89905 -2.78791 -0 0 0 -0 0 0 -4.19855e-014 -5.65958e-014 3.94956e-014 55.5547 39.3137 9.23174 -13.0909 -6.83033 22.9779 -0.15966 -12.7269 -1.81178 1.64458e-010 -2.75288e-010 -7.58115e-011 2.85867e-010 -4.78596e-010 -1.30217e-010 1.64472e-010 -2.75297e-010 -7.58302e-011 7.73091 5.47488 0.417314 1.6446e-010 -2.753e-010 -7.58115e-011 2.90554 0.965183 0.102902 1.64465e-010 -2.753e-010 -7.58107e-011 10.2786 0.731801 0.0259123 1.64446e-010 -2.75288e-010 -7.58132e-011 2.22167 -0.733487 -0.20892 -4.19223e-014 -5.65943e-014 3.94168e-014 -68.3729 40.5551 5.35743 9.71553 -4.28457 -16.9273 0.0151895 -3.85644 0.542666 5.07388e-010 2.51217e-010 3.37853e-010 8.75898e-010 4.34215e-010 5.84842e-010 5.07385e-010 2.51217e-010 3.37862e-010 -7.73091 5.47488 -0.417314 5.07381e-010 2.51218e-010 3.37842e-010 -2.90554 0.965183 -0.102902 5.07384e-010 2.51217e-010 3.37854e-010 -10.2786 0.731801 -0.0259123 5.07394e-010 2.5122e-010 3.37841e-010 -2.22167 -0.733487 0.20892 -2.03217e-016 0 -3.88251e-019 10.9761 -17.814 4.04261 0.00761398 27.4595 0.614744 -0.396632 -14.5937 0.302607 2.03217e-016 0 3.88251e-019 9.29077 -38.9702 9.77694 0.541682 52.9171 -1.17845 2.93801 -4.49793 11.8502 
42.9203 79.1489 -220.145 -4.74615 9.12816 -2.8942 5.01953 -3.62013 2.46625 5.30179 0.476803 0.683253 -11.9008 -4.59947 -4.07916 16.8621 -3.69494 -3.31715 -0 0 0 -0 0 0 -4.61141e-014 -4.21435e-014 4.51241e-014 64.3813 48.0784 13.8406 -15.4166 -8.1562 28.4503 -0.317465 -15.828 -2.28345 2.1242e-010 -3.11115e-010 -9.60241e-011 3.68502e-010 -5.40707e-010 -1.64601e-010 2.12435e-010 -3.11125e-010 -9.60432e-011 7.73091 5.47488 0.417314 2.12423e-010 -3.11128e-010 -9.60241e-011 2.90554 0.965183 0.102902 2.12427e-010 -3.11128e-010 -9.60233e-011 10.2786 0.731801 0.0259123 2.12408e-010 -3.11115e-010 -9.60273e-011 2.22167 -0.733487 -0.20892 -4.60256e-014 -4.21408e-014 4.50744e-014 -85.3961 48.8639 8.33433 11.5057 -5.10794 -20.6571 0.0241619 -4.43295 0.624268 4.44969e-010 2.97169e-010 5.18278e-010 7.68102e-010 5.13723e-010 8.96889e-010 4.44965e-010 2.97168e-010 5.18287e-010 -7.73091 5.47488 -0.417314 4.44961e-010 2.97169e-010 5.18268e-010 -2.90554 0.965183 -0.102902 4.44966e-010 2.97168e-010 5.1828e-010 -10.2786 0.731801 -0.0259123 4.44976e-010 2.97171e-010 5.18268e-010 -2.22167 -0.733487 0.20892 -2.03217e-016 0 -3.88251e-019 13.4477 -20.4207 4.97696 -0.0802033 32.9321 0.809129 -0.330364 -18.3147 0.44151 2.03217e-016 0 3.88251e-019 13.7516 -46.7116 13.4569 1.28861 63.7185 -1.97296 3.90883 -6.32707 14.3914 
42.5995 78.825 -219.217 -4.95979 9.75979 -3.4602 5.28787 -3.84237 2.94293 5.70597 0.474768 0.810516 -12.9062 -4.75387 -4.2951 18.2105 -4.39489 -3.31538 -0 0 0 -0 0 0 -3.97608e-014 1.54146e-014 4.71683e-014 65.3811 52.1923 17.9809 -16.5554 -8.8992 31.2589 -0.421357 -17.6419 -2.56636 2.19828e-010 -1.91768e-010 -1.34456e-010 3.80468e-010 -3.33538e-010 -2.30513e-010 2.19842e-010 -1.91776e-010 -1.34472e-010 7.73091 5.47488 0.417314 2.1983e-010 -1.91778e-010 -1.34456e-010 2.90554 0.965183 0.102902 2.19833e-010 -1.91778e-010 -1.34454e-010 10.2786 0.731801 0.0259123 2.19818e-010 -1.91767e-010 -1.34456e-010 2.22167 -0.733487 -0.20892 -3.96796e-014 1.54203e-014 4.70677e-014 -93.3956 51.085 11.1161 12.1668 -5.40685 -22.103 0.019443 -4.06089 0.571627 7.56895e-011 2.98807e-010 8.24527e-010 1.30592e-010 5.16792e-010 1.42635e-009 7.56846e-011 2.98806e-010 8.24538e-010 -7.73091 5.47488 -0.417314 7.56827e-011 2.98806e-010 8.24523e-010 -2.90554 0.965183 -0.102902 7.5686e-011 2.98806e-010 8.24532e-010 -10.2786 0.731801 -0.0259123 7.56949e-011 2.98808e-010 8.24522e-010 -2.22167 -0.733487 0.20892 -2.03217e-016 0 -3.88251e-019 14.343 -20.6686 5.2886 -0.121726 34.6845 0.909831 -0.256091 -19.7658 0.600962 2.03217e-016 0 3.88251e-019 15.9239 -49.9014 15.1607 1.62512 66.3983 -2.32228 4.33882 -7.44458 15.1917 
42.5419 78.793 -218.148 -4.82819 9.67299 -3.94917 5.13513 -3.76387 3.3562 5.72242 0.415384 0.919724 -13.0275 -4.46411 -4.15379 18.3642 -5.02234 -2.93623 -0 0 0 -0 0 0 -2.59305e-014 1.03561e-013 4.64069e-014 61.8204 53.1019 20.8965 -16.9752 -9.33281 32.1436 -0.463102 -18.5357 -2.70538 1.99238e-010 3.41402e-011 -1.84758e-010 3.43611e-010 5.85673e-011 -3.1695e-010 1.99247e-010 3.41347e-011 -1.84767e-010 7.73091 5.47488 0.417314 1.99238e-010 3.41344e-011 -1.84758e-010 2.90554 0.965183 0.102902 1.9924e-010 3.41346e-011 -1.84754e-010 10.2786 0.731801 0.0259123 1.99232e-010 3.41421e-011 -1.84751e-010 2.22167 -0.733487 -0.20892 -2.58795e-014 1.03571e-013 4.61988e-014 -94.0565 49.0196 13.0209 12.0784 -5.36348 -21.9114 0.00847285 -3.01703 0.42426 -5.1161e-010 2.68806e-010 1.21842e-009 -8.83275e-010 4.65282e-010 2.10724e-009 -5.11617e-010 2.68805e-010 1.21843e-009 -7.73091 5.47488 -0.417314 -5.11613e-010 2.68804e-010 1.21843e-009 -2.90554 0.965183 -0.102902 -5.11615e-010 2.68804e-010 1.21843e-009 -10.2786 0.731801 -0.0259123 -5.11607e-010 2.68806e-010 1.21842e-009 -2.22167 -0.733487 0.20892 -2.03217e-016 0 -3.88251e-019 14.0705 -19.236 5.13763 -0.106412 33.7771 0.927445 -0.185611 -19.5942 0.773662 2.03217e-016 0 3.88251e-019 15.6725 -49.9598 14.7758 1.32363 63.2779 -2.02254 4.29012 -8.07892 14.7328 
42.616 78.9987 -216.892 -4.56578 9.31999 -4.39874 4.8217 -3.59848 3.75879 5.55557 0.36222 1.02501 -12.7329 -4.09348 -3.90272 17.908 -5.46154 -2.50333 -0 0 0 -0 0 0 -9.44252e-015 1.97175e-013 3.62825e-014 56.8249 52.643 22.9945 -17.1179 -9.65731 32.219 -0.472494 -19.0001 -2.77542 1.99959e-010 1.58886e-010 -2.01367e-010 3.42869e-010 2.75792e-010 -3.44576e-010 1.99964e-010 1.58884e-010 -2.01371e-010 7.73091 5.47488 0.417314 1.99958e-010 1.58886e-010 -2.01367e-010 2.90554 0.965183 0.102902 1.99959e-010 1.58886e-010 -2.01363e-010 10.2786 0.731801 0.0259123 1.99957e-010 1.5889e-010 -2.01354e-010 2.22167 -0.733487 -0.20892 -9.43185e-015 1.97188e-013 3.59591e-014 -91.4296 45.4562 14.3625 11.6972 -5.18794 -21.0795 0.00255222 -1.89895 0.266889 -1.14694e-009 2.266e-010 1.57248e-009 -1.98016e-009 3.92629e-010 2.71919e-009 -1.14694e-009 2.26598e-010 1.5725e-009 -7.73091 5.47488 -0.417314 -1.14694e-009 2.26597e-010 1.57249e-009 -2.90554 0.965183 -0.102902 -1.14694e-009 2.26597e-010 1.57249e-009 -10.2786 0.731801 -0.0259123 -1.14694e-009 2.26598e-010 1.57249e-009 -2.22167 -0.733487 0.20892 -2.03217e-016 0 -3.88251e-019 13.2922 -17.1065 4.75284 -0.0667547 31.7108 0.905088 -0.0890371 -18.7309 1.03901 2.03217e-016 0 3.88251e-019 14.4393 -48.7137 13.5342 0.912131 57.7277 -1.60216 4.00392 -8.41954 13.7519 
42.8878 79.3903 -215.167 -4.37087 9.15181 -4.84923 4.61413 -3.55961 4.20375 5.40939 0.378838 1.14049 -12.4844 -4.00586 -3.78847 17.4117 -5.59657 -2.34156 -0 0 0 -0 0 0 4.88346e-015 2.71136e-013 1.02374e-014 52.7715 52.5075 25.3208 -17.3651 -10.02 32.611 -0.491612 -19.5252 -2.85667 2.71305e-010 -2.52504e-011 -1.38723e-010 4.63178e-010 -4.16812e-011 -2.34051e-010 2.71306e-010 -2.525e-011 -1.38723e-010 7.73091 5.47488 0.417314 2.71302e-010 -2.52477e-011 -1.38723e-010 2.90554 0.965183 0.102902 2.71303e-010 -2.52474e-011 -1.38718e-010 10.2786 0.731801 0.0259123 2.71304e-010 -2.52461e-011 -1.38707e-010 2.22167 -0.733487 -0.20892 4.85724e-015 2.71149e-013 9.83984e-015 -90.0746 43.1117 15.7833 11.4784 -5.08961 -20.605 0.00208715 -1.30438 0.18335 -1.6603e-009 1.91622e-010 1.75923e-009 -2.86672e-009 3.32269e-010 3.04181e-009 -1.66031e-009 1.9162e-010 1.75924e-009 -7.73091 5.47488 -0.417314 -1.66029e-009 1.91618e-010 1.75924e-009 -2.90554 0.965183 -0.102902 -1.66031e-009 1.91619e-010 1.75924e-009 -10.2786 0.731801 -0.0259123 -1.6603e-009 1.9162e-010 1.75924e-009 -2.22167 -0.733487 0.20892 -2.03217e-016 0 -3.88251e-019 12.6483 -15.2649 4.34753 -0.038078 29.9864 0.886668 0.0711317 -18.1062 1.4791 2.03217e-016 0 3.88251e-019 13.7258 -47.9915 12.7312 0.676383 53.1208 -1.35063 3.75812 -8.64853 12.9942 
